# Blender 4.2.3 LTS
# www.blender.org
o wall_with_door_gap
v -2.000000 -2.000000 -0.000000
v 2.000000 -2.000000 -0.000000
v -2.000000 2.000000 0.000000
v 2.000000 2.000000 0.000000
v -2.000000 -2.000000 1.000000
v 2.000000 -2.000000 1.000000
v -2.000000 2.000000 1.000000
v 2.000000 2.000000 1.000000
v -0.500000 0.000000 0.000000
v -0.500000 -2.000000 -0.000000
v 0.500000 0.000000 0.000000
v 0.500000 -2.000000 -0.000000
v -0.500000 -2.000000 1.000000
v 0.500000 -0.000000 1.000000
v 0.500000 -2.000000 1.000000
v -0.500000 -0.000000 1.000000
v -2.000000 2.000000 0.000000
v -2.000000 2.000000 1.000000
v 2.000000 2.000000 1.000000
v 2.000000 2.000000 0.000000
v -2.000000 -2.000000 -0.000000
v -2.000000 -2.000000 1.000000
v -0.500000 -2.000000 1.000000
v -0.500000 -2.000000 -0.000000
v 0.500000 -2.000000 -0.000000
v 2.000000 -2.000000 -0.000000
v 0.500000 0.000000 0.000000
v -0.500000 0.000000 0.000000
v 2.000000 -2.000000 1.000000
v 0.500000 -2.000000 1.000000
v -0.500000 -0.000000 1.000000
v 0.500000 -0.000000 1.000000
vn -0.0000 -0.0000 -1.0000
vn -0.0000 -0.0000 1.0000
vn -0.0000 -1.0000 -0.0000
vn 1.0000 -0.0000 -0.0000
vn -1.0000 -0.0000 -0.0000
vn -0.0000 1.0000 -0.0000
vt 0.000000 1.000000
vt 1.000000 1.000000
vt 0.375000 0.500000
vt 0.625000 0.500000
vt 1.000000 0.000000
vt 0.625000 0.000000
vt 0.000000 0.000000
vt 0.375000 0.000000
vt 0.625000 0.179821
vt 0.375000 0.125000
vt 0.375000 0.179821
vt 0.625000 0.625000
vt 0.375000 0.570179
vt 0.375000 0.625000
vt 0.875000 0.500000
vt 0.625000 0.750000
vt 0.625000 0.125000
vt 0.625000 0.570179
s 0
f 3/1/1 4/2/1 9/3/1
f 8/2/2 7/1/2 14/4/2
f 2/5/3 15/6/3 12/6/3
f 5/7/3 10/8/3 13/8/3
f 4/2/4 6/5/4 2/5/4
f 1/7/5 7/1/5 3/1/5
f 3/1/6 8/2/6 4/2/6
f 9/9/4 13/10/4 10/11/4
f 14/12/5 12/13/5 15/14/5
f 9/15/3 14/16/3 16/15/3
f 10/8/1 1/7/1 9/3/1
f 1/7/1 3/1/1 9/3/1
f 4/2/1 2/5/1 11/4/1
f 2/5/1 12/6/1 11/4/1
f 4/2/1 11/4/1 9/3/1
f 14/4/2 15/6/2 6/5/2
f 7/1/2 5/7/2 16/3/2
f 5/7/2 13/8/2 16/3/2
f 14/4/2 6/5/2 8/2/2
f 7/1/2 16/3/2 14/4/2
f 2/5/3 6/5/3 15/6/3
f 5/7/3 1/7/3 10/8/3
f 4/2/4 8/2/4 6/5/4
f 1/7/5 5/7/5 7/1/5
f 3/1/6 7/1/6 8/2/6
f 9/9/4 16/17/4 13/10/4
f 14/12/5 11/18/5 12/13/5
f 9/15/3 11/16/3 14/16/3
